<!-- White Cat -->
<svg width="64" height="64" viewBox="0 0 64 64" xmlns="http://www.w3.org/2000/svg">
    <g transform="translate(32, 50)">
         <!-- Tail -->
        <path d="M12,-5 Q25,-15 20,-25" stroke="#ECF0F1" stroke-width="4" fill="none" stroke-linecap="round"/>
        <!-- Body -->
        <ellipse cx="0" cy="-10" rx="15" ry="12" fill="#ECF0F1"/>
        <!-- Head -->
        <circle cx="0" cy="-25" r="12" fill="#ECF0F1"/>
        <!-- Ears -->
        <path d="M-8,-32 L-12,-42 L-2,-35 Z" fill="#ECF0F1"/>
        <path d="M8,-32 L12,-42 L2,-35 Z" fill="#ECF0F1"/>
        <!-- Ear Inner -->
        <path d="M-8,-32 L-10,-38 L-4,-34 Z" fill="#FFC0CB"/>
        <path d="M8,-32 L10,-38 L4,-34 Z" fill="#FFC0CB"/>
        <!-- Face -->
        <circle cx="-4" cy="-25" r="1.5" fill="#333"/>
        <circle cx="4" cy="-25" r="1.5" fill="#333"/>
        <path d="M-2,-21 Q0,-19 2,-21" stroke="#333" stroke-width="1" fill="none"/>
        <ellipse cx="-4" cy="-20" rx="1" ry="0.5" fill="#FFC0CB" opacity="0.5"/>
        <ellipse cx="4" cy="-20" rx="1" ry="0.5" fill="#FFC0CB" opacity="0.5"/>
    </g>
</svg>
